<svg width="2880" height="1446" viewBox="0 0 2880 1446" fill="none" xmlns="http://www.w3.org/2000/svg">
<g clip-path="url(#clip0)">
<g opacity="0.303083">
<path opacity="0.646996" fill-rule="evenodd" clip-rule="evenodd" d="M2334.11 -285.213L1064.56 -1018.19C726.384 -1213.43 293.959 -1097.57 98.7133 -759.389C-96.5328 -421.213 19.3346 11.2115 357.511 206.458L1627.06 939.432C1965.24 1134.68 2397.66 1018.81 2592.91 680.634C2788.15 342.458 2672.28 -89.9667 2334.11 -285.213Z" fill="url(#paint0_linear)"/>
<path opacity="0.495396" fill-rule="evenodd" clip-rule="evenodd" d="M1110.92 15.5696L-158.625 -717.404C-496.801 -912.651 -929.226 -796.783 -1124.47 -458.607C-1319.72 -120.43 -1203.85 311.994 -865.674 507.24L403.874 1240.21C742.05 1435.46 1174.47 1319.59 1369.72 981.416C1564.97 643.24 1449.1 210.816 1110.92 15.5696Z" fill="url(#paint1_linear)"/>
<g style="mix-blend-mode:overlay" opacity="0.109589">
<path fill-rule="evenodd" clip-rule="evenodd" d="M971.108 -280.811L2240.66 452.163C2578.83 647.409 3011.26 531.542 3206.5 193.365C3401.75 -144.811 3285.88 -577.235 2947.71 -772.481L1678.16 -1505.46C1339.98 -1700.7 907.556 -1584.83 712.31 -1246.66C517.064 -908.481 632.932 -476.057 971.108 -280.811Z" fill="black"/>
</g>
</g>
<rect x="-845.448" y="-778.161" width="4900.76" height="2406.26" rx="1203.13" transform="rotate(-30 -845.448 -778.161)" fill="url(#paint2_linear)"/>
<g style="mix-blend-mode:overlay" opacity="0.15">
<rect x="3777.72" y="-1706.11" width="4900.76" height="2406.26" rx="1203.13" transform="rotate(150 3777.72 -1706.11)" fill="url(#paint3_linear)"/>
</g>
</g>
<defs>
<linearGradient id="paint0_linear" x1="160.281" y1="-336.064" x2="2625.6" y2="51.5359" gradientUnits="userSpaceOnUse">
<stop stop-color="white"/>
<stop offset="0.516723" stop-color="#C2C2C2"/>
<stop offset="0.758148" stop-color="#BCBCBC" stop-opacity="0.202615"/>
<stop offset="1" stop-color="#F5F5F5"/>
</linearGradient>
<linearGradient id="paint1_linear" x1="-1062.9" y1="-35.2818" x2="1402.42" y2="352.318" gradientUnits="userSpaceOnUse">
<stop stop-color="white"/>
<stop offset="0.516723" stop-color="#C2C2C2"/>
<stop offset="0.758148" stop-color="#BCBCBC" stop-opacity="0.202615"/>
<stop offset="1" stop-color="#F5F5F5"/>
</linearGradient>
<linearGradient id="paint2_linear" x1="2333.4" y1="866.589" x2="-197.022" y2="866.589" gradientUnits="userSpaceOnUse">
<stop stop-color="white"/>
<stop offset="1" stop-color="white"/>
</linearGradient>
<linearGradient id="paint3_linear" x1="6956.57" y1="1181.07" x2="6956.57" y2="-61.3634" gradientUnits="userSpaceOnUse">
<stop stop-color="#13AA42"/>
<stop offset="1" stop-color="#116149"/>
</linearGradient>
<clipPath id="clip0">
<rect width="2880" height="1446" fill="white"/>
</clipPath>
</defs>
</svg>
