<svg width="64" height="64" viewBox="0 0 64 64" fill="none" xmlns="http://www.w3.org/2000/svg">
<path d="M9.57481 5.7037C8.02826 6.23684 6.9532 7.62467 6.84057 9.23247V25.4404C6.91436 28.5047 4.44966 31.0482 1.33325 31.123V31.3064C4.44656 31.3774 6.91281 33.917 6.84057 36.9784C6.84057 36.9814 6.84057 36.9852 6.84057 36.9891V53.1893C6.9532 54.7971 8.02826 56.1849 9.57481 56.7181" stroke="#13AA52" stroke-width="2" stroke-linecap="round" stroke-linejoin="round"/>
<path d="M54.1479 5.7037C55.6953 6.23531 56.7711 7.6239 56.8822 9.23247V25.4404C56.8123 28.5063 59.2793 31.0482 62.3965 31.123V31.3064C59.2785 31.3774 56.8099 33.9201 56.8822 36.986V36.9891V53.1893C56.7711 54.7979 55.6953 56.1865 54.1479 56.7181" stroke="#13AA52" stroke-width="2" stroke-linecap="round" stroke-linejoin="round"/>
<path d="M14.9629 5.06036C20.7965 4.35766 34.9881 3.07447 49.6613 5.06036" stroke="#13AA52" stroke-width="2" stroke-linecap="round" stroke-linejoin="round"/>
<path d="M14.9629 58.5185C14.9629 58.5185 33.2955 60.6961 49.6613 58.5185" stroke="#13AA52" stroke-width="2" stroke-linecap="round" stroke-linejoin="round"/>
<path d="M14.9629 9.11111C14.9629 9.11111 33.2955 11.288 49.6613 9.11111" stroke="#13AA52" stroke-width="2" stroke-linecap="round" stroke-linejoin="round"/>
<path d="M48 39.5H27C27 36.7 29.3333 36 30.5 36C30.5 34.1667 31.6 30.5 36 30.5C41 30.5 41.5 35 41.5 35C46.7 35 48 38 48 39.5Z" stroke="#116149" stroke-width="2"/>
<path d="M24.5 36H17C17 32.5778 19.7778 31.7222 21.1667 31.7222C21.1667 29.4815 22.4762 25 27.7143 25C30.0226 25 31.5253 25.8271 32.5 26.8398" stroke="#13AA52" stroke-width="2" stroke-linecap="round" stroke-linejoin="round"/>
</svg>
