<?xml version="1.0" encoding="UTF-8"?>
<svg width="36px" height="36px" viewBox="0 0 36 36" version="1.1" xmlns="http://www.w3.org/2000/svg" xmlns:xlink="http://www.w3.org/1999/xlink">
    <!-- Generator: Sketch 63.1 (92452) - https://sketch.com -->
    <title>atlas-global-deployments</title>
    <desc>Created with Sketch.</desc>
    <g id="Icons" stroke="none" stroke-width="1" fill="none" fill-rule="evenodd" stroke-linecap="round" stroke-linejoin="round">
        <g transform="translate(-1583.000000, -3446.000000)" id="atlas-global-deployments">
            <g transform="translate(1584.000000, 3447.000000)">
                <path d="M27.125,22.1735 C27.4356602,22.1735 27.6875,22.4253398 27.6875,22.736 C27.6875,23.0466602 27.4356602,23.2985 27.125,23.2985 C26.8143398,23.2985 26.5625,23.0466602 26.5625,22.736 C26.5625,22.4253398 26.8143398,22.1735 27.125,22.1735" id="Path" stroke="#116149"></path>
                <path d="M27.125,15.986 C30.8529221,15.986 33.875,19.0080779 33.875,22.736 C33.875,25.6175 29.843,31.1015 28.0115,33.443 C27.7982945,33.7158808 27.4712954,33.8753654 27.125,33.8753654 C26.7787046,33.8753654 26.4517055,33.7158808 26.2385,33.443 C24.407,31.1 20.375,25.6175 20.375,22.736 C20.375,19.0080779 23.3970779,15.986 27.125,15.986 L27.125,15.986 Z" id="Path" stroke="#116149"></path>
                <path d="M20.372,33.548 C11.244508,35.4103737 2.33346324,29.5276593 0.4594697,20.4025459 C-1.41452384,11.2774325 4.45684011,2.35890493 13.5795601,0.473294603 C22.7022801,-1.41231572 31.628276,4.4476882 33.5255,13.568" id="Path" stroke="#13AA52"></path>
                <path d="M12.9335,33.3815 C10.6505,30.0335 9.125,23.9495 9.125,17 C9.125,10.0505 10.6505,3.968 12.9335,0.6185" id="Path" stroke="#13AA52"></path>
                <line x1="0.1625" y1="15.875" x2="18.125" y2="15.875" id="Path" stroke="#13AA52"></line>
                <line x1="3.4985" y1="6.875" x2="30.5" y2="6.875" id="Path" stroke="#13AA52"></line>
                <line x1="2.072" y1="24.875" x2="15.875" y2="24.875" id="Path" stroke="#13AA52"></line>
                <path d="M21.0665,0.6185 C23.0099574,3.90246263 24.1934095,7.57992854 24.53,11.381" id="Path" stroke="#13AA52"></path>
            </g>
        </g>
    </g>
</svg>