<?xml version="1.0" encoding="UTF-8"?>
<svg width="36px" height="36px" viewBox="0 0 36 36" version="1.1" xmlns="http://www.w3.org/2000/svg" xmlns:xlink="http://www.w3.org/1999/xlink">
    <!-- Generator: Sketch 63.1 (92452) - https://sketch.com -->
    <title>charts-charts</title>
    <desc>Created with Sketch.</desc>
    <g id="Icons" stroke="none" stroke-width="1" fill="none" fill-rule="evenodd" stroke-linecap="round" stroke-linejoin="round">
        <g transform="translate(-500.000000, -4438.000000)" id="charts-charts">
            <g transform="translate(501.000000, 4439.000000)">
                <line x1="0.1235" y1="33.875" x2="32.7485" y2="33.875" id="Path" stroke="#13AA52"></line>
                <path d="M3.1235,27.125 L7.25,27.125 C7.66421356,27.125 8,27.4607864 8,27.875 L8,33.875 L2.3735,33.875 L2.3735,27.875 C2.3735,27.4607864 2.70928644,27.125 3.1235,27.125 Z" id="Path" stroke="#13AA52"></path>
                <path d="M14.3735,13.625 L18.5,13.625 C18.9142136,13.625 19.25,13.9607864 19.25,14.375 L19.25,33.875 L13.6235,33.875 L13.6235,14.375 C13.6235,13.9607864 13.9592864,13.625 14.3735,13.625 Z" id="Path" stroke="#13AA52"></path>
                <path d="M25.6235,20.375 L29.75,20.375 C30.1642136,20.375 30.5,20.7107864 30.5,21.125 L30.5,33.875 L24.875,33.875 L24.875,21.125 C24.875,20.7113715 25.2098723,20.3758273 25.6235,20.375 Z" id="Path" stroke="#13AA52"></path>
                <line x1="9.3245" y1="6.6815" x2="3.299" y2="12.701" id="Path" stroke="#116149"></line>
                <line x1="20.4665" y1="8.4875" x2="13.4555" y2="6.6125" id="Path" stroke="#116149"></line>
                <line x1="29.588" y1="3.3335" x2="24.2165" y2="7.5335" id="Path" stroke="#116149"></line>
                <circle id="Oval" stroke="#116149" cx="11.3735" cy="5.7515" r="2.25"></circle>
                <circle id="Oval" stroke="#116149" cx="31.625" cy="2.375" r="2.25"></circle>
                <circle id="Oval" stroke="#116149" cx="22.625" cy="9.125" r="2.25"></circle>
                <circle id="Oval" stroke="#116149" cx="2.3735" cy="14.7515" r="2.25"></circle>
            </g>
        </g>
    </g>
</svg>