<?xml version="1.0" encoding="UTF-8"?>
<svg width="36px" height="31px" viewBox="0 0 36 31" version="1.1" xmlns="http://www.w3.org/2000/svg" xmlns:xlink="http://www.w3.org/1999/xlink">
    <!-- Generator: Sketch 63.1 (92452) - https://sketch.com -->
    <title>connectors-general</title>
    <desc>Created with Sketch.</desc>
    <g id="Icons" stroke="none" stroke-width="1" fill="none" fill-rule="evenodd">
        <g transform="translate(-1174.000000, -4600.000000)" id="connectors-general">
            <g transform="translate(1174.000000, 4600.000000)">
                <path d="M18,0.5 C16.7463874,0.5 15.6114834,1.0088327 14.7899634,1.83141411 C13.860371,2.76220748 13.3320147,4.09470402 13.4866961,5.54651163 L7.04,5.54651163 C6.62578644,5.54651163 6.25078644,5.71440485 5.97933983,5.98585146 C5.70602501,6.25916628 5.53769388,6.63746479 5.54002388,7.05506956 L5.30319182,13.4842296 C3.90953743,13.4053159 2.64282859,13.956563 1.76056369,14.8791725 C0.979676444,15.6957685 0.5,16.8034343 0.5,18.0232558 C0.5,19.2788143 1.00820987,20.4155381 1.82996339,21.2383533 C2.7594565,22.1690473 4.09012367,22.6981004 5.54,22.5429557 L5.54,29 C5.54,29.4142136 5.70789322,29.7892136 5.97933983,30.0606602 C6.25078644,30.3321068 6.62578644,30.5 7.04,30.5 L28.96,30.5 C29.3742136,30.5 29.7492136,30.3321068 30.0206602,30.0606602 C30.293975,29.7873454 30.4623061,29.4090468 30.4599761,28.9914421 L30.6968082,22.562282 C32.0904626,22.6411958 33.3571714,22.0899486 34.2394363,21.1673392 C35.0203236,20.3507432 35.5,19.2430773 35.5,18.0232558 C35.5,16.7676974 34.9917901,15.6309735 34.1700366,14.8081583 C33.2405435,13.8774643 31.9098763,13.3484112 30.46,13.5035559 L30.46,7.04651163 C30.46,6.63229807 30.2921068,6.25729807 30.0206602,5.98585146 C29.7473397,5.712531 29.3690312,5.54419856 28.9514162,5.54653565 L22.5325661,5.30936874 C22.6111428,3.91386925 22.0606259,2.6454185 21.1391147,1.76192538 C20.3238092,0.980256269 19.2179205,0.5 18,0.5 Z" id="Combined-Shape" stroke="#13AA52"></path>
                <g id="mongodb-leaf" transform="translate(14.000000, 10.000000)" stroke="#116149" stroke-linecap="round" stroke-linejoin="round">
                    <path d="M4.15364444,-3.55271368e-14 C4.15364444,-3.55271368e-14 13.4662535,9.93048 4.15364444,13.839 C-5.19205556,9.93048 4.15364444,-3.55271368e-14 4.15364444,-3.55271368e-14 Z" id="Stroke-1"></path>
                    <line x1="4.15364444" y1="6.68388" x2="4.15364444" y2="15.58536" id="Stroke-3"></line>
                </g>
            </g>
        </g>
    </g>
</svg>