<?xml version="1.0" encoding="UTF-8"?>
<svg width="35px" height="34px" viewBox="0 0 35 34" version="1.1" xmlns="http://www.w3.org/2000/svg" xmlns:xlink="http://www.w3.org/1999/xlink">
    <!-- Generator: Sketch 63.1 (92452) - https://sketch.com -->
    <title>general-features-management</title>
    <desc>Created with Sketch.</desc>
    <g id="Icons" stroke="none" stroke-width="1" fill="none" fill-rule="evenodd" stroke-linecap="round" stroke-linejoin="round">
        <g transform="translate(-772.000000, -1623.000000)" id="general-features-management">
            <g transform="translate(772.000000, 1624.000000)">
                <path d="M8.7195,15.318 C9.02158135,15.6532867 9.4517015,15.8447089 9.903,15.8447089 C10.3542985,15.8447089 10.7844187,15.6532867 11.0865,15.318 L11.8515,14.472 C12.303648,13.9721672 13.0212368,13.8106138 13.643963,14.0684561 C14.2666893,14.3262984 14.6600349,14.9478388 14.6265,15.621 L14.568,16.761 C14.5453851,17.2111272 14.7143202,17.6498009 15.0330096,17.9684904 C15.3516991,18.2871798 15.7903728,18.4561149 16.2405,18.4335 L17.3805,18.375 C18.0539406,18.3407778 18.676101,18.7338806 18.9343507,19.3567774 C19.1926004,19.9796743 19.0310991,20.697679 18.531,21.15 L17.6835,21.915 C17.3482133,22.2170813 17.1567911,22.6472015 17.1567911,23.0985 C17.1567911,23.5497985 17.3482133,23.9799187 17.6835,24.282 L18.531,25.047 C19.0310991,25.499321 19.1926004,26.2173257 18.9343507,26.8402226 C18.676101,27.4631194 18.0539406,27.8562222 17.3805,27.822 L16.2405,27.7635 C15.7903728,27.7408851 15.3516991,27.9098202 15.0330096,28.2285096 C14.7143202,28.5471991 14.5453851,28.9858728 14.568,29.436 L14.6265,30.576 C14.6600349,31.2491612 14.2666893,31.8707016 13.643963,32.1285439 C13.0212368,32.3863862 12.303648,32.2248328 11.8515,31.725 L11.0865,30.879 C10.7844187,30.5437133 10.3542985,30.3522911 9.903,30.3522911 C9.4517015,30.3522911 9.02158135,30.5437133 8.7195,30.879 L7.9545,31.725 C7.50235199,32.2248328 6.78476319,32.3863862 6.16203696,32.1285439 C5.53931073,31.8707016 5.14596509,31.2491612 5.1795,30.576 L5.238,29.436 C5.26061491,28.9858728 5.09167982,28.5471991 4.77299036,28.2285096 C4.4543009,27.9098202 4.01562722,27.7408851 3.5655,27.7635 L2.4255,27.822 C1.75377183,27.8539863 1.13418721,27.4610919 0.876683668,26.8398562 C0.619180128,26.2186205 0.779121655,25.5026109 1.2765,25.05 L2.1225,24.285 C2.45778674,23.9829187 2.64920888,23.5527985 2.64920888,23.1015 C2.64920888,22.6502015 2.45778674,22.2200813 2.1225,21.918 L1.2765,21.15 C0.776667226,20.697852 0.615113776,19.9802632 0.872956096,19.357537 C1.13079842,18.7348107 1.75233878,18.3414651 2.4255,18.375 L3.5655,18.4335 C4.01562722,18.4561149 4.4543009,18.2871798 4.77299036,17.9684904 C5.09167982,17.6498009 5.26061491,17.2111272 5.238,16.761 L5.1795,15.621 C5.14596509,14.9478388 5.53931073,14.3262984 6.16203696,14.0684561 C6.78476319,13.8106138 7.50235199,13.9721672 7.9545,14.472 L8.7195,15.318 Z" id="Path" stroke="#13AA52"></path>
                <circle id="Oval" stroke="#116149" cx="9.056" cy="5.501" r="1.437"></circle>
                <path d="M10,1.2 L10.328,2.276 C10.4418154,2.64469305 10.8210509,2.86289526 11.197,2.776 L12.288,2.523 C12.712504,2.42724312 13.1498538,2.61933324 13.3665492,2.99671383 C13.5832446,3.37409442 13.5286852,3.8486434 13.232,4.167 L12.468,5 C12.2037786,5.28405583 12.2037786,5.72394417 12.468,6.008 L13.231,6.832 C13.5267618,7.15047577 13.5807676,7.62439365 13.3642429,8.00124759 C13.1477182,8.37810152 12.7110915,8.57012222 12.287,8.475 L11.2,8.219 C10.8240509,8.13210474 10.4448154,8.35030695 10.331,8.719 L10,9.8 C9.87505357,10.2167081 9.49153703,10.5020994 9.0565,10.5020994 C8.62146297,10.5020994 8.23794643,10.2167081 8.113,9.8 L7.785,8.724 C7.67118455,8.35530695 7.29194911,8.13710474 6.916,8.224 L5.825,8.477 C5.4009085,8.57212222 4.96428183,8.38010152 4.74775712,8.00324759 C4.5312324,7.62639365 4.58523823,7.15247577 4.881,6.834 L5.644,6.01 C5.90822144,5.72594417 5.90822144,5.28605583 5.644,5.002 L4.881,4.179 C4.58431483,3.8606434 4.52975536,3.38609442 4.74645078,3.00871383 C4.96314621,2.63133324 5.40049601,2.43924312 5.825,2.535 L6.916,2.788 C7.29194911,2.87489526 7.67118455,2.65669305 7.785,2.288 L8.112,1.2 C8.23639199,0.782452024 8.620317,0.496227666 9.056,0.496227666 C9.491683,0.496227666 9.87560801,0.782452024 10,1.2 Z" id="Path" stroke="#116149"></path>
                <circle id="Oval" stroke="#13AA52" cx="9.903" cy="23.0985" r="3.6615"></circle>
                <path d="M27.0667269,16.2807107 C26.8191733,16.0059455 26.4666927,15.8490764 26.0968566,15.8490764 C25.7270206,15.8490764 25.37454,16.0059455 25.1269864,16.2807107 L24.500074,16.9752313 C24.1294,17.3850591 23.541,17.5174083 23.0305402,17.3057745 C22.5200804,17.0941406 22.1979353,16.5842843 22.2259802,16.0324043 L22.2739205,15.098182 C22.2924533,14.7293057 22.1540121,14.3698156 21.8928483,14.1086517 C21.6316844,13.8474879 21.2721943,13.7090467 20.903318,13.7275795 L19.9690957,13.7755198 C19.4172157,13.8035647 18.9073594,13.4814196 18.6957255,12.9709598 C18.4840917,12.4605 18.6164409,11.8721 19.0262687,11.501426 L19.7207893,10.8745136 C19.9955545,10.62696 20.1524236,10.2744794 20.1524236,9.90464336 C20.1524236,9.53480727 19.9955545,9.18232671 19.7207893,8.93477308 L19.0262687,8.30786072 C18.6164409,7.93718671 18.4840917,7.3487867 18.6957255,6.83832691 C18.9073594,6.32786712 19.4172157,6.00572202 19.9690957,6.0337669 L20.903318,6.08170726 C21.2721943,6.10024002 21.6316844,5.96179885 21.8928483,5.70063499 C22.1540121,5.43947112 22.2924533,5.07998099 22.2739205,4.71110476 L22.2259802,3.77688244 C22.1984985,3.22523135 22.5208427,2.7158832 23.0311626,2.50458316 C23.5414826,2.29328311 24.1295418,2.42567508 24.500074,2.83528467 L25.1269864,3.52857598 C25.37454,3.8033412 25.7270206,3.96021036 26.0968566,3.96021036 C26.4666927,3.96021036 26.8191733,3.8033412 27.0667269,3.52857598 L27.6936393,2.83528467 C28.0641715,2.42567508 28.6522307,2.29328311 29.1625507,2.50458316 C29.6728706,2.7158832 29.9952147,3.22523135 29.9677331,3.77688244 L29.9197927,4.71110476 C29.90126,5.07998099 30.0397011,5.43947112 30.300865,5.70063499 C30.5620289,5.96179885 30.921519,6.10024002 31.2903952,6.08170726 L32.2246176,6.0337669 C32.7762687,6.00628527 33.2856168,6.32862937 33.4969168,6.83894932 C33.7082169,7.34926928 33.5758249,7.93732848 33.1662153,8.30786072 L32.472924,8.93477308 C32.1981588,9.18232671 32.0412896,9.53480727 32.0412896,9.90464336 C32.0412896,10.2744794 32.1981588,10.62696 32.472924,10.8745136 L33.1662153,11.501426 C33.5758249,11.8719582 33.7082169,12.4600174 33.4969168,12.9703374 C33.2856168,13.4806573 32.7762687,13.8030015 32.2246176,13.7755198 L31.2903952,13.7275795 C30.921519,13.7090467 30.5620289,13.8474879 30.300865,14.1086517 C30.0397011,14.3698156 29.90126,14.7293057 29.9197927,15.098182 L29.9677331,16.0324043 C29.995778,16.5842843 29.6736329,17.0941406 29.1631731,17.3057745 C28.6527133,17.5174083 28.0643133,17.3850591 27.6936393,16.9752313 L27.0667269,16.2807107 Z" id="Path" stroke="#13AA52"></path>
                <circle id="Oval" stroke="#13AA52" cx="26.0968566" cy="9.90464336" r="3.00057461"></circle>
            </g>
        </g>
    </g>
</svg>