<svg width="152" height="40" viewBox="0 0 152 40" fill="none" xmlns="http://www.w3.org/2000/svg">
<path d="M17.6254 15.9119C15.5194 6.62079 11.1285 4.14315 9.99981 2.39505C9.53181 1.62423 9.13264 0.825878 8.77476 0C8.7197 0.825878 8.60958 1.34893 7.90758 1.96834C6.50359 3.22092 0.51598 8.10737 0.0204536 18.6648C-0.447544 28.5203 7.26065 34.5905 8.27923 35.2099C9.06381 35.5953 10.0136 35.2237 10.4816 34.8658C14.198 32.3194 19.2772 25.5196 17.6254 15.9119Z" fill="#13AA52"/>
<path d="M9.10514 29.9794C8.91244 32.4157 8.77479 33.8335 8.27927 35.2237C8.27927 35.2237 8.59585 37.5499 8.82985 40H9.6282C9.82091 38.2657 10.11 36.5451 10.5091 34.852C9.47679 34.3427 9.14644 32.1129 9.10514 29.9794Z" fill="#B8C4C2"/>
<path d="M10.5091 34.852C9.463 34.3703 9.16018 32.0853 9.10512 29.9656C9.36665 26.4694 9.43547 22.9594 9.33912 19.4494C9.28406 17.6049 9.36665 2.42257 8.88489 0.192703C9.21524 0.949758 9.58688 1.67928 10.0136 2.38128C11.1285 4.12939 15.5332 6.60702 17.6392 15.8981C19.2772 25.5058 14.2256 32.2918 10.5091 34.852Z" fill="#12924F"/>
<path d="M149.119 31.4935C147.853 31.4935 146.834 30.4749 146.834 29.2085C146.834 27.9422 147.853 26.9236 149.119 26.9236C150.371 26.9236 151.39 27.9284 151.404 29.181C151.431 30.4198 150.454 31.4659 149.215 31.4935C149.174 31.4935 149.146 31.4935 149.119 31.4935ZM149.119 27.1301C147.976 27.1163 147.04 28.0523 147.027 29.1948C147.013 30.3372 147.949 31.2732 149.091 31.287C150.234 31.3008 151.17 30.3648 151.184 29.2223C151.184 29.2223 151.184 29.2223 151.184 29.2085C151.211 28.0798 150.303 27.1438 149.174 27.1301C149.16 27.1301 149.133 27.1301 149.119 27.1301ZM149.669 30.6538L149.078 29.3875H148.61V30.6538H148.266V27.7632H149.119C149.752 27.7632 150.014 28.0385 150.014 28.5754C150.014 29.0021 149.821 29.2636 149.436 29.3462L150.041 30.6538H149.669ZM148.623 29.0847H149.119C149.518 29.0847 149.683 28.947 149.683 28.5754C149.683 28.2037 149.532 28.0798 149.078 28.0798H148.623V29.0847Z" fill="#21313C"/>
<path d="M115.134 29.415C115.753 29.9105 116.992 30.117 118.08 30.117C119.484 30.117 120.874 29.8555 122.223 28.6304C123.599 27.3778 124.549 25.4645 124.549 22.4088C124.549 19.4769 123.434 17.0819 121.135 15.6917C119.842 14.8796 118.162 14.563 116.249 14.563C115.698 14.563 115.134 14.5905 114.804 14.7419C114.666 14.852 114.583 14.9897 114.542 15.1548C114.487 15.6779 114.487 19.6559 114.487 22.0096C114.487 24.4184 114.487 27.7908 114.542 28.2037C114.57 28.5478 114.749 29.1535 115.134 29.415ZM109.27 13.2416C109.766 13.2416 111.665 13.3242 112.546 13.3242C114.198 13.3242 115.341 13.2416 118.424 13.2416C121.012 13.2416 123.186 13.9436 124.742 15.2787C126.628 16.903 127.632 19.1741 127.632 21.9408C127.632 25.8637 125.843 28.1349 124.04 29.415C122.25 30.7502 119.924 31.5072 116.607 31.5072C114.845 31.5072 111.817 31.4522 109.284 31.4246H109.243C109.119 31.1906 109.463 30.2822 109.67 30.2684C110.358 30.1858 110.537 30.1583 110.853 30.0344C111.39 29.8142 111.514 29.5389 111.569 28.5891C111.652 26.786 111.624 24.6387 111.624 22.1886C111.624 20.4405 111.652 17.0406 111.597 15.967C111.5 15.0723 111.129 14.8383 110.358 14.6593C109.807 14.5492 109.257 14.4529 108.706 14.3978C108.651 14.2051 109.105 13.4205 109.27 13.2416Z" fill="#21313C"/>
<path d="M134.928 14.7281C134.817 14.7557 134.666 15.0447 134.666 15.1961C134.639 16.2422 134.611 18.9814 134.611 20.8672C134.625 20.936 134.68 21.0048 134.762 21.0186C135.148 21.0461 136.084 21.0736 136.882 21.0736C137.997 21.0736 138.644 20.9222 139.002 20.757C139.938 20.2891 140.378 19.2705 140.378 18.1693C140.378 15.6366 138.617 14.6868 136.001 14.6868C135.63 14.6593 135.272 14.6731 134.928 14.7281ZM141.603 26.3455C141.603 23.7853 139.718 22.34 136.277 22.34C136.125 22.34 135.038 22.3125 134.776 22.3675C134.694 22.395 134.597 22.4501 134.597 22.5189C134.597 24.3496 134.57 27.2815 134.652 28.4515C134.707 28.947 135.065 29.649 135.506 29.8417C135.974 30.1032 137.034 30.1583 137.777 30.1583C139.8 30.1583 141.603 29.0296 141.603 26.3455ZM129.614 13.2966C129.876 13.2966 130.661 13.3792 132.656 13.3792C134.542 13.3792 136.07 13.3241 137.887 13.3241C140.144 13.3241 143.269 14.1363 143.269 17.5086C143.269 19.1603 142.099 20.5093 140.557 21.1425C140.475 21.17 140.475 21.225 140.557 21.2526C142.732 21.8032 144.645 23.1383 144.645 25.6985C144.645 28.2037 143.09 29.7729 140.819 30.7639C139.442 31.3696 137.736 31.576 136.001 31.576C134.68 31.576 131.129 31.4384 129.16 31.4659C128.954 31.3833 129.353 30.4473 129.532 30.3097C129.986 30.2959 130.427 30.2271 130.867 30.1032C131.569 29.9243 131.652 29.7041 131.748 28.6579C131.803 27.7495 131.803 24.5286 131.803 22.2299C131.803 19.0915 131.831 16.9718 131.803 15.9257C131.775 15.1135 131.486 14.852 130.922 14.7006C130.482 14.618 129.752 14.5217 129.16 14.4391C129.023 14.2877 129.463 13.4067 129.614 13.2966Z" fill="#21313C"/>
<path d="M24.1498 31.4935C24.0672 31.3008 24.0397 31.1081 24.0672 30.9016C24.0672 30.764 24.0948 30.6263 24.1498 30.5024C24.5352 30.4474 24.9069 30.3648 25.2785 30.2684C25.8016 30.1445 25.9943 29.8555 26.0218 29.1948C26.1044 27.6256 26.1182 24.68 26.0769 22.6153V22.5602C26.0769 22.34 26.0769 22.0372 25.8016 21.8169C25.3198 21.5141 24.7968 21.2801 24.2462 21.1287C23.9984 21.0599 23.8608 20.9222 23.8745 20.7708C23.8883 20.6194 24.0397 20.4405 24.3563 20.3716C25.2097 20.2891 27.4396 19.7522 28.3205 19.3531C28.4169 19.4769 28.4581 19.6146 28.4444 19.766C28.4444 19.8624 28.4306 19.9587 28.4169 20.0551C28.3893 20.3441 28.3618 20.6745 28.3618 21.0048C28.3756 21.1287 28.4857 21.2113 28.6096 21.1975C28.6508 21.1975 28.7059 21.17 28.7334 21.1425C30.399 19.8348 31.8993 19.3668 32.6701 19.3668C33.9365 19.3668 34.9138 19.9725 35.6708 21.2113C35.7121 21.2663 35.7672 21.3076 35.836 21.3076C35.9048 21.3076 35.9599 21.2801 36.0012 21.2251C37.529 20.0551 39.0569 19.3668 40.0755 19.3668C42.4843 19.3668 43.9158 21.17 43.9158 24.1845C43.9158 25.0516 43.9021 26.1528 43.9021 27.1714C43.9021 28.0661 43.8883 28.9195 43.8883 29.4976C43.8883 29.6353 44.081 30.0344 44.3701 30.1032C44.7279 30.2684 45.2235 30.3648 45.8704 30.4749H45.8979C45.953 30.6538 45.8429 31.3145 45.7465 31.4522C45.5813 31.4522 45.3611 31.4384 45.0858 31.4247C44.5903 31.3971 43.9021 31.3696 43.1037 31.3696C41.507 31.3696 40.6674 31.3971 39.869 31.4522C39.814 31.2595 39.7864 30.6125 39.8553 30.4749C40.1856 30.4198 40.516 30.351 40.8325 30.2547C41.3418 30.0895 41.4932 29.8555 41.5208 29.181C41.5345 28.6993 41.6309 24.4735 41.4657 23.4687C41.3143 22.4226 40.5297 21.2113 38.8091 21.2113C38.176 21.2113 37.1436 21.4728 36.1663 22.2161C36.1113 22.2849 36.07 22.3675 36.07 22.4639V22.4776C36.1801 23.0145 36.1801 23.6476 36.1801 24.6112C36.1801 25.1617 36.1801 25.7399 36.1801 26.3042C36.1801 27.4742 36.1663 28.5754 36.1801 29.4013C36.1801 29.9656 36.5242 30.1032 36.7995 30.2134C36.9509 30.2409 37.0748 30.2684 37.1849 30.296C37.4189 30.351 37.6529 30.4061 38.0108 30.4611C38.0659 30.7089 38.0521 30.9567 37.997 31.1907C37.9833 31.287 37.942 31.3696 37.8869 31.4384C36.9922 31.4109 36.0837 31.3834 34.7623 31.3834C34.3632 31.3834 33.7162 31.3971 33.1381 31.4109C32.6701 31.4247 32.2297 31.4384 31.9819 31.4384C31.9131 31.2732 31.8855 31.1081 31.8993 30.9291C31.8855 30.764 31.9131 30.5988 31.9957 30.4611L32.3535 30.3923C32.6564 30.3372 32.9316 30.296 33.1794 30.2271C33.6199 30.0895 33.7851 29.8555 33.8126 29.2911C33.8952 27.9973 33.964 24.267 33.7851 23.331C33.4685 21.8307 32.6288 21.0736 31.2524 21.0736C30.454 21.0736 29.4354 21.4591 28.6096 22.0785C28.4444 22.2299 28.3618 22.4501 28.3618 22.6841C28.3618 23.1246 28.3618 23.6614 28.3618 24.2257C28.3618 26.0977 28.348 28.424 28.3893 29.4425C28.4169 29.7591 28.527 30.117 29.1051 30.2547C29.229 30.296 29.4492 30.3235 29.7107 30.3648C29.8621 30.3923 30.0135 30.4198 30.1787 30.4474C30.2338 30.7777 30.2063 31.1081 30.0961 31.4247C29.8346 31.4247 29.5318 31.4109 29.1601 31.3971C28.6096 31.3696 27.9213 31.3421 27.1505 31.3421C26.2283 31.3421 25.5951 31.3696 25.072 31.3971C24.7417 31.4797 24.4389 31.4935 24.1498 31.4935Z" fill="#21313C"/>
<path d="M53.6612 20.6194C53.1657 20.6056 52.6702 20.7433 52.2572 21.0186C51.2387 21.638 50.7156 22.8768 50.7156 24.7075C50.7156 28.1211 52.4224 30.5024 54.8725 30.5024C55.5332 30.5299 56.1664 30.2959 56.6619 29.8692C57.419 29.2636 57.8182 27.9972 57.8182 26.2491C57.8182 22.8768 56.1389 20.6194 53.6612 20.6194ZM54.1292 31.755C49.7108 31.755 48.1416 28.5065 48.1416 25.4783C48.1416 23.3586 49.0088 21.7068 50.7156 20.5506C51.9131 19.8073 53.2896 19.4081 54.6936 19.3806C58.0659 19.3806 60.4197 21.8032 60.4197 25.2719C60.4197 27.6256 59.4837 29.4976 57.6943 30.6538C56.8409 31.1906 55.3543 31.755 54.1292 31.755Z" fill="#21313C"/>
<path d="M98.6441 20.6194C98.1485 20.6056 97.653 20.7433 97.2401 21.0186C96.2215 21.638 95.6984 22.8768 95.6984 24.7075C95.6984 28.1211 97.4053 30.5024 99.8553 30.5024C100.516 30.5299 101.149 30.2959 101.659 29.8692C102.416 29.2636 102.801 27.9972 102.801 26.2491C102.801 22.8768 101.122 20.6194 98.6441 20.6194ZM99.1121 31.755C94.6936 31.755 93.1245 28.5065 93.1245 25.4783C93.1245 23.3586 93.9916 21.7068 95.6984 20.5506C96.896 19.8073 98.2724 19.4081 99.6764 19.3806C103.049 19.3806 105.402 21.8032 105.402 25.2719C105.402 27.6394 104.466 29.4976 102.677 30.6538C101.824 31.1906 100.337 31.755 99.1121 31.755Z" fill="#21313C"/>
<path d="M83.7645 20.4955C82.4018 20.4955 81.5208 21.5692 81.5208 23.2347C81.5208 24.9002 82.2779 26.8823 84.4114 26.8823C84.7831 26.8823 85.4438 26.7171 85.7741 26.3593C86.2697 25.905 86.6 24.969 86.6 23.9642C86.6 21.8032 85.5401 20.4955 83.7645 20.4955ZM83.5993 31.989C83.2139 31.989 82.8423 32.0853 82.4981 32.2643C81.4245 32.9525 80.9152 33.6407 80.9152 34.4391C80.9152 35.1824 81.2043 35.788 81.8374 36.3111C82.5945 36.958 83.6131 37.2608 84.962 37.2608C87.6048 37.2608 88.7886 35.8431 88.7886 34.4391C88.7886 33.4618 88.2931 32.8011 87.2882 32.4295C86.5037 32.1404 85.196 31.989 83.5993 31.989ZM83.7782 38.7337C82.1953 38.7337 81.0528 38.4033 80.0755 37.6462C79.1258 36.9167 78.6991 35.8293 78.6991 35.0723C78.7128 34.5905 78.8918 34.1225 79.2221 33.7646C79.4974 33.448 80.1444 32.8562 81.6172 31.8513C81.6585 31.8376 81.6998 31.7825 81.6998 31.7275C81.6998 31.6724 81.6585 31.6173 81.6034 31.6036C80.3921 31.1356 80.0205 30.3648 79.9104 29.9518C79.9104 29.9381 79.9104 29.9105 79.8966 29.883C79.8691 29.7178 79.8278 29.5664 80.048 29.415C80.2132 29.2911 80.4885 29.1259 80.7776 28.9608C81.1905 28.7268 81.5897 28.479 81.9613 28.1899C82.0301 28.1074 82.0301 27.9835 81.9475 27.9147C81.9338 27.9009 81.92 27.8871 81.9063 27.8871C80.1031 27.2815 79.1946 25.9463 79.1946 23.8954C79.1808 22.6015 79.8003 21.3765 80.8601 20.6332C81.5897 20.0551 83.4066 19.3668 84.5904 19.3668H84.6592C85.8705 19.3944 86.5587 19.6559 87.5085 20C88.0453 20.1927 88.6234 20.2891 89.1878 20.2615C90.1926 20.2615 90.6331 19.9449 91.0047 19.5733C91.0598 19.7385 91.1011 19.9174 91.1011 20.0963C91.1286 20.5231 91.0047 20.936 90.7707 21.2939C90.5642 21.5829 90.0825 21.7894 89.642 21.7894C89.6007 21.7894 89.5456 21.7894 89.5043 21.7756C89.2703 21.7619 89.0363 21.7206 88.8161 21.6655L88.706 21.7068C88.6647 21.7619 88.6922 21.8169 88.7198 21.8858C88.7335 21.8995 88.7335 21.9133 88.7335 21.927C88.8161 22.2987 88.8712 22.6703 88.8987 23.042C88.8987 25.1893 88.0591 26.1115 87.1368 26.7997C86.2559 27.4604 85.2098 27.8734 84.1086 27.9697C84.0811 27.9697 83.971 27.9835 83.7507 27.9972C83.6131 28.011 83.4341 28.0248 83.4066 28.0248H83.3791C83.1864 28.0798 82.6633 28.3276 82.6633 28.7818C82.6633 29.1672 82.8973 29.6352 84.0122 29.7178L84.7418 29.7729C86.2146 29.883 88.0591 30.0069 88.9262 30.2959C90.11 30.7089 90.8808 31.8376 90.8671 33.0902C90.8671 35.0034 89.5044 36.8204 87.2194 37.9215C86.1458 38.4308 84.962 38.7061 83.7645 38.6924" fill="#21313C"/>
<path d="M77.0199 30.4749C76.3729 30.3923 75.9049 30.2959 75.3406 30.0344C75.2305 29.9243 75.1616 29.7729 75.1341 29.6215C75.0791 28.713 75.0791 26.0977 75.0791 24.3909C75.0791 23.0007 74.8451 21.7756 74.2532 20.8947C73.5512 19.9036 72.5464 19.3255 71.2525 19.3255C70.11 19.3255 68.5821 20.1101 67.3158 21.1838C67.2883 21.2113 67.0956 21.404 67.0956 21.1149C67.0956 20.8259 67.1506 20.2478 67.1644 19.8761C67.1919 19.6696 67.1231 19.4769 66.9717 19.3393C66.1458 19.7522 63.8333 20.3028 62.9662 20.3854C62.3468 20.5093 62.1816 21.1012 62.8561 21.3214H62.8698C63.4066 21.4728 63.9159 21.693 64.3839 21.9821C64.6455 22.1886 64.6179 22.4776 64.6179 22.7116C64.6455 24.6524 64.6455 27.6531 64.5629 29.2773C64.5353 29.9105 64.3564 30.1445 63.8884 30.2684L63.9297 30.2546C63.5718 30.351 63.2139 30.406 62.8423 30.4611C62.6909 30.6125 62.6909 31.4521 62.8423 31.6173C63.1313 31.6173 64.6317 31.5347 65.8705 31.5347C67.5773 31.5347 68.4583 31.6173 68.8987 31.6173C69.0777 31.4109 69.1327 30.6263 69.0226 30.4611C68.6097 30.4473 68.2105 30.3785 67.8113 30.2822C67.3433 30.172 67.2194 29.938 67.1919 29.415C67.1369 28.0523 67.1369 25.1342 67.1369 23.1659C67.1369 22.6153 67.2883 22.3537 67.4534 22.2023C68.0453 21.6793 69.0088 21.3352 69.8623 21.3352C70.6881 21.3352 71.2387 21.5967 71.6517 21.9408C72.1334 22.3537 72.4362 22.9456 72.4913 23.5788C72.6014 24.68 72.5739 26.8961 72.5739 28.8093C72.5739 29.8555 72.4913 30.117 72.1059 30.2409C71.927 30.3235 71.459 30.4198 70.8946 30.4749C70.7157 30.6538 70.7707 31.4659 70.8946 31.6311C71.6517 31.6311 72.5464 31.5485 73.8402 31.5485C75.4645 31.5485 76.483 31.6311 76.896 31.6311C77.0749 31.4246 77.1438 30.6676 77.0199 30.4749Z" fill="#21313C"/>
</svg>
