<svg width="16" height="13" viewBox="0 0 16 13" fill="none" xmlns="http://www.w3.org/2000/svg">
<path fill-rule="evenodd" clip-rule="evenodd" d="M14.3553 3.32336C14.3621 3.4167 14.3655 3.5567 14.3655 3.74336C14.3655 4.61003 14.2369 5.47502 13.9797 6.33836C13.7225 7.2017 13.3316 8.03003 12.8071 8.82336C12.2826 9.6167 11.6582 10.3184 10.934 10.9284C10.2098 11.5384 9.33672 12.025 8.31472 12.3884C7.29272 12.7517 6.19967 12.9334 5.03553 12.9334C3.20134 12.9334 1.52285 12.45 0 11.4834C0.236888 11.51 0.500845 11.5234 0.791878 11.5234C2.31473 11.5234 3.67174 11.0634 4.86294 10.1434C4.15228 10.13 3.51608 9.91503 2.95431 9.49836C2.39255 9.08169 2.00677 8.55003 1.79695 7.90336C2.02031 7.9367 2.22673 7.95336 2.41624 7.95336C2.70728 7.95336 2.99492 7.9167 3.27919 7.84336C2.52115 7.69003 1.8934 7.31837 1.39594 6.72836C0.898475 6.13836 0.649746 5.45337 0.649746 4.67336V4.63336C1.10999 4.8867 1.60406 5.02336 2.13198 5.04336C1.68528 4.75003 1.32995 4.3667 1.06599 3.89336C0.802029 3.42003 0.670051 2.9067 0.670051 2.35336C0.670051 1.76669 0.81895 1.22337 1.11675 0.723362C1.93571 1.7167 2.93231 2.51169 4.1066 3.10836C5.28089 3.70503 6.53806 4.0367 7.87817 4.10336C7.82403 3.85003 7.79695 3.60336 7.79695 3.36336C7.79695 2.47002 8.11675 1.70837 8.75634 1.07836C9.39594 0.44836 10.1692 0.133362 11.0761 0.133362C12.0237 0.133362 12.8223 0.473358 13.4721 1.15336C14.2098 1.01336 14.9036 0.753365 15.5533 0.373362C15.3029 1.14003 14.8223 1.73336 14.1117 2.15336C14.7411 2.0867 15.3706 1.92003 16 1.65336C15.5465 2.3067 14.9983 2.86336 14.3553 3.32336Z" fill="#E7EEEC"/>
<mask id="mask0" mask-type="alpha" maskUnits="userSpaceOnUse" x="0" y="0" width="16" height="13">
<path fill-rule="evenodd" clip-rule="evenodd" d="M14.3553 3.32336C14.3621 3.4167 14.3655 3.5567 14.3655 3.74336C14.3655 4.61003 14.2369 5.47502 13.9797 6.33836C13.7225 7.2017 13.3316 8.03003 12.8071 8.82336C12.2826 9.6167 11.6582 10.3184 10.934 10.9284C10.2098 11.5384 9.33672 12.025 8.31472 12.3884C7.29272 12.7517 6.19967 12.9334 5.03553 12.9334C3.20134 12.9334 1.52285 12.45 0 11.4834C0.236888 11.51 0.500845 11.5234 0.791878 11.5234C2.31473 11.5234 3.67174 11.0634 4.86294 10.1434C4.15228 10.13 3.51608 9.91503 2.95431 9.49836C2.39255 9.08169 2.00677 8.55003 1.79695 7.90336C2.02031 7.9367 2.22673 7.95336 2.41624 7.95336C2.70728 7.95336 2.99492 7.9167 3.27919 7.84336C2.52115 7.69003 1.8934 7.31837 1.39594 6.72836C0.898475 6.13836 0.649746 5.45337 0.649746 4.67336V4.63336C1.10999 4.8867 1.60406 5.02336 2.13198 5.04336C1.68528 4.75003 1.32995 4.3667 1.06599 3.89336C0.802029 3.42003 0.670051 2.9067 0.670051 2.35336C0.670051 1.76669 0.81895 1.22337 1.11675 0.723362C1.93571 1.7167 2.93231 2.51169 4.1066 3.10836C5.28089 3.70503 6.53806 4.0367 7.87817 4.10336C7.82403 3.85003 7.79695 3.60336 7.79695 3.36336C7.79695 2.47002 8.11675 1.70837 8.75634 1.07836C9.39594 0.44836 10.1692 0.133362 11.0761 0.133362C12.0237 0.133362 12.8223 0.473358 13.4721 1.15336C14.2098 1.01336 14.9036 0.753365 15.5533 0.373362C15.3029 1.14003 14.8223 1.73336 14.1117 2.15336C14.7411 2.0867 15.3706 1.92003 16 1.65336C15.5465 2.3067 14.9983 2.86336 14.3553 3.32336Z" fill="white"/>
</mask>
<g mask="url(#mask0)">
</g>
</svg>
