<svg width="16" height="22" viewBox="0 0 16 22" fill="none" xmlns="http://www.w3.org/2000/svg">
<path fill-rule="evenodd" clip-rule="evenodd" d="M10.7425 14.3937L2.74281 13.6551L2.58372 15.3596L10.5949 16.0981L10.7425 14.3937ZM10.5494 16.5869L2.5155 16.5983V18.3139L10.5494 18.3029V16.5869ZM12.2879 10.1892L5.36775 6.09835L4.49285 7.57555L11.4129 11.6664L12.2879 10.1892ZM11.2767 12.1437L3.5155 10.0641L3.07228 11.7233L10.8335 13.8028L11.2767 12.1437ZM11.9241 19.6776H1.37907V12.6552H0.00415039V21.0184H0.0155733L0.413383 21.0299H13.2765V21.0184L13.2879 20.6207V12.6552H11.9241V19.6776ZM14.6061 0.666687L12.9128 0.96213L14.2881 8.88242L15.981 8.58701L14.6061 0.666687ZM8.03811 3.31432L12.572 9.95063L13.9813 8.98478L9.4584 2.33717L8.03811 3.31432Z" fill="#E7EEEC"/>
<mask id="mask0" mask-type="alpha" maskUnits="userSpaceOnUse" x="0" y="0" width="16" height="22">
<path fill-rule="evenodd" clip-rule="evenodd" d="M10.7425 14.3937L2.74281 13.6551L2.58372 15.3596L10.5949 16.0981L10.7425 14.3937ZM10.5494 16.5869L2.5155 16.5983V18.3139L10.5494 18.3029V16.5869ZM12.2879 10.1892L5.36775 6.09835L4.49285 7.57555L11.4129 11.6664L12.2879 10.1892ZM11.2767 12.1437L3.5155 10.0641L3.07228 11.7233L10.8335 13.8028L11.2767 12.1437ZM11.9241 19.6776H1.37907V12.6552H0.00415039V21.0184H0.0155733L0.413383 21.0299H13.2765V21.0184L13.2879 20.6207V12.6552H11.9241V19.6776ZM14.6061 0.666687L12.9128 0.96213L14.2881 8.88242L15.981 8.58701L14.6061 0.666687ZM8.03811 3.31432L12.572 9.95063L13.9813 8.98478L9.4584 2.33717L8.03811 3.31432Z" fill="white"/>
</mask>
<g mask="url(#mask0)">
</g>
</svg>
