<svg width="16" height="16" viewBox="0 0 16 16" fill="none" xmlns="http://www.w3.org/2000/svg">
<path fill-rule="evenodd" clip-rule="evenodd" d="M14.8185 0H1.1822C0.529238 0 0 0.513092 0 1.14638V14.8533C0 15.4866 0.529424 16.0002 1.1822 16.0002H14.8185C15.4714 16.0002 16 15.4863 16 14.8533V1.14638C16 0.513278 15.4714 0 14.8185 0ZM4.85075 13.3932H2.43326V6.16936H4.85075V13.3932ZM3.64225 5.18245H3.62599C2.8153 5.18245 2.28979 4.62803 2.28979 3.93392C2.28979 3.22583 2.83074 2.68644 3.6575 2.68644C4.48433 2.68644 4.99293 3.22568 5.009 3.93392C5.009 4.62818 4.48452 5.18245 3.64225 5.18245ZM13.5651 13.3932H11.1484V9.52821C11.1484 8.55704 10.7982 7.89437 9.92424 7.89437C9.25566 7.89437 8.85877 8.34144 8.68449 8.77306C8.61992 8.92722 8.60392 9.14283 8.60392 9.35813V13.3931H6.18766C6.18766 13.3931 6.21928 6.84676 6.18766 6.16924H8.60429V7.19338C8.9251 6.70127 9.49839 5.99928 10.7817 5.99928C12.3724 5.99928 13.5651 7.03116 13.5651 9.25104V13.3932H13.5651ZM8.58867 7.25899C8.60051 7.23957 8.61704 7.21621 8.63347 7.19349V7.25899H8.58867Z" fill="#E7EEEC"/>
<mask id="mask0" mask-type="alpha" maskUnits="userSpaceOnUse" x="0" y="0" width="16" height="17">
<path fill-rule="evenodd" clip-rule="evenodd" d="M14.8185 0H1.1822C0.529238 0 0 0.513092 0 1.14638V14.8533C0 15.4866 0.529424 16.0002 1.1822 16.0002H14.8185C15.4714 16.0002 16 15.4863 16 14.8533V1.14638C16 0.513278 15.4714 0 14.8185 0ZM4.85075 13.3932H2.43326V6.16936H4.85075V13.3932ZM3.64225 5.18245H3.62599C2.8153 5.18245 2.28979 4.62803 2.28979 3.93392C2.28979 3.22583 2.83074 2.68644 3.6575 2.68644C4.48433 2.68644 4.99293 3.22568 5.009 3.93392C5.009 4.62818 4.48452 5.18245 3.64225 5.18245ZM13.5651 13.3932H11.1484V9.52821C11.1484 8.55704 10.7982 7.89437 9.92424 7.89437C9.25566 7.89437 8.85877 8.34144 8.68449 8.77306C8.61992 8.92722 8.60392 9.14283 8.60392 9.35813V13.3931H6.18766C6.18766 13.3931 6.21928 6.84676 6.18766 6.16924H8.60429V7.19338C8.9251 6.70127 9.49839 5.99928 10.7817 5.99928C12.3724 5.99928 13.5651 7.03116 13.5651 9.25104V13.3932H13.5651ZM8.58867 7.25899C8.60051 7.23957 8.61704 7.21621 8.63347 7.19349V7.25899H8.58867Z" fill="white"/>
</mask>
<g mask="url(#mask0)">
</g>
</svg>
